<svg xmlns="http://www.w3.org/2000/svg" width="1440" height="900"><path d="M691,455L775,435L656,334Z" fill="#9c9c9c" stroke="#9c9c9c" stroke-width="1.51"/><path d="M775,435L798,359L656,334Z" fill="#9d9d9d" stroke="#9d9d9d" stroke-width="1.51"/><path d="M798,359L679,240L656,334Z" fill="#a7a7a7" stroke="#a7a7a7" stroke-width="1.51"/><path d="M656,334L545,443L691,455Z" fill="#a2a2a2" stroke="#a2a2a2" stroke-width="1.51"/><path d="M679,240L572,317L656,334Z" fill="#b0b0b0" stroke="#b0b0b0" stroke-width="1.51"/><path d="M572,317L545,443L656,334Z" fill="#ababab" stroke="#ababab" stroke-width="1.51"/><path d="M798,359L788,190L679,240Z" fill="#a9a9a9" stroke="#a9a9a9" stroke-width="1.51"/><path d="M894,469L906,359L798,359Z" fill="#919191" stroke="#919191" stroke-width="1.51"/><path d="M775,435L894,469L798,359Z" fill="#919191" stroke="#919191" stroke-width="1.51"/><path d="M759,594L894,469L775,435Z" fill="#898989" stroke="#898989" stroke-width="1.51"/><path d="M878,222L788,190L798,359Z" fill="#a4a4a4" stroke="#a4a4a4" stroke-width="1.51"/><path d="M691,455L759,594L775,435Z" fill="#8f8f8f" stroke="#8f8f8f" stroke-width="1.51"/><path d="M557,591L676,590L691,455Z" fill="#929292" stroke="#929292" stroke-width="1.51"/><path d="M676,590L759,594L691,455Z" fill="#8c8c8c" stroke="#8c8c8c" stroke-width="1.51"/><path d="M906,359L878,222L798,359Z" fill="#9c9c9c" stroke="#9c9c9c" stroke-width="1.51"/><path d="M572,317L444,324L545,443Z" fill="#b2b2b2" stroke="#b2b2b2" stroke-width="1.51"/><path d="M679,240L524,211L572,317Z" fill="#b7b7b7" stroke="#b7b7b7" stroke-width="1.51"/><path d="M691,121L524,211L679,240Z" fill="#bababa" stroke="#bababa" stroke-width="1.51"/><path d="M788,190L691,121L679,240Z" fill="#b3b3b3" stroke="#b3b3b3" stroke-width="1.51"/><path d="M789,129L691,121L788,190Z" fill="#b3b3b3" stroke="#b3b3b3" stroke-width="1.51"/><path d="M886,111L789,129L788,190Z" fill="#aeaeae" stroke="#aeaeae" stroke-width="1.51"/><path d="M545,443L557,591L691,455Z" fill="#9b9b9b" stroke="#9b9b9b" stroke-width="1.51"/><path d="M749,701L882,654L759,594Z" fill="#7a7a7a" stroke="#7a7a7a" stroke-width="1.51"/><path d="M420,474L557,591L545,443Z" fill="#a2a2a2" stroke="#a2a2a2" stroke-width="1.51"/><path d="M906,359L978,318L878,222Z" fill="#989898" stroke="#989898" stroke-width="1.51"/><path d="M878,222L886,111L788,190Z" fill="#a9a9a9" stroke="#a9a9a9" stroke-width="1.51"/><path d="M1015,457L978,318L906,359Z" fill="#8c8c8c" stroke="#8c8c8c" stroke-width="1.51"/><path d="M894,469L1015,457L906,359Z" fill="#888888" stroke="#888888" stroke-width="1.51"/><path d="M759,594L909,584L894,469Z" fill="#808080" stroke="#808080" stroke-width="1.51"/><path d="M524,211L444,324L572,317Z" fill="#bbbbbb" stroke="#bbbbbb" stroke-width="1.51"/><path d="M989,560L1015,457L894,469Z" fill="#7e7e7e" stroke="#7e7e7e" stroke-width="1.51"/><path d="M444,324L420,474L545,443Z" fill="#afafaf" stroke="#afafaf" stroke-width="1.51"/><path d="M759,594L882,654L909,584Z" fill="#7a7a7a" stroke="#7a7a7a" stroke-width="1.51"/><path d="M909,584L989,560L894,469Z" fill="#7c7c7c" stroke="#7c7c7c" stroke-width="1.51"/><path d="M749,701L759,594L676,590Z" fill="#828282" stroke="#828282" stroke-width="1.51"/><path d="M789,129L770,17L691,121Z" fill="#b7b7b7" stroke="#b7b7b7" stroke-width="1.51"/><path d="M1004,123L886,111L878,222Z" fill="#a5a5a5" stroke="#a5a5a5" stroke-width="1.51"/><path d="M649,696L749,701L676,590Z" fill="#818181" stroke="#818181" stroke-width="1.51"/><path d="M557,591L649,696L676,590Z" fill="#8a8a8a" stroke="#8a8a8a" stroke-width="1.51"/><path d="M549,663L649,696L557,591Z" fill="#8b8b8b" stroke="#8b8b8b" stroke-width="1.51"/><path d="M978,318L1006,237L878,222Z" fill="#9a9a9a" stroke="#9a9a9a" stroke-width="1.51"/><path d="M1096,312L1006,237L978,318Z" fill="#919191" stroke="#919191" stroke-width="1.51"/><path d="M1032,659L989,560L909,584Z" fill="#727272" stroke="#727272" stroke-width="1.51"/><path d="M524,211L426,233L444,324Z" fill="#c1c1c1" stroke="#c1c1c1" stroke-width="1.51"/><path d="M444,324L333,464L420,474Z" fill="#b2b2b2" stroke="#b2b2b2" stroke-width="1.51"/><path d="M434,76L426,233L524,211Z" fill="#c9c9c9" stroke="#c9c9c9" stroke-width="1.51"/><path d="M428,690L549,663L557,591Z" fill="#919191" stroke="#919191" stroke-width="1.51"/><path d="M691,121L538,105L524,211Z" fill="#c2c2c2" stroke="#c2c2c2" stroke-width="1.51"/><path d="M640,-11L538,105L691,121Z" fill="#c4c4c4" stroke="#c4c4c4" stroke-width="1.51"/><path d="M420,474L413,555L557,591Z" fill="#a0a0a0" stroke="#a0a0a0" stroke-width="1.51"/><path d="M330,548L413,555L420,474Z" fill="#a6a6a6" stroke="#a6a6a6" stroke-width="1.51"/><path d="M886,111L770,17L789,129Z" fill="#b2b2b2" stroke="#b2b2b2" stroke-width="1.51"/><path d="M1015,457L1096,312L978,318Z" fill="#888888" stroke="#888888" stroke-width="1.51"/><path d="M1006,237L1004,123L878,222Z" fill="#9e9e9e" stroke="#9e9e9e" stroke-width="1.51"/><path d="M1112,457L1096,312L1015,457Z" fill="#808080" stroke="#808080" stroke-width="1.51"/><path d="M1130,206L1004,123L1006,237Z" fill="#989898" stroke="#989898" stroke-width="1.51"/><path d="M886,111L891,-2L770,17Z" fill="#b3b3b3" stroke="#b3b3b3" stroke-width="1.51"/><path d="M299,347L333,464L444,324Z" fill="#bababa" stroke="#bababa" stroke-width="1.51"/><path d="M770,17L640,-11L691,121Z" fill="#bfbfbf" stroke="#bfbfbf" stroke-width="1.51"/><path d="M1112,560L1112,457L1015,457Z" fill="#767676" stroke="#767676" stroke-width="1.51"/><path d="M1112,560L1015,457L989,560Z" fill="#757575" stroke="#757575" stroke-width="1.51"/><path d="M426,233L299,347L444,324Z" fill="#c2c2c2" stroke="#c2c2c2" stroke-width="1.51"/><path d="M538,105L434,76L524,211Z" fill="#cacaca" stroke="#cacaca" stroke-width="1.51"/><path d="M554,-8L434,76L538,105Z" fill="#cfcfcf" stroke="#cfcfcf" stroke-width="1.51"/><path d="M882,654L1032,659L909,584Z" fill="#717171" stroke="#717171" stroke-width="1.51"/><path d="M901,776L1032,659L882,654Z" fill="#6a6a6a" stroke="#6a6a6a" stroke-width="1.51"/><path d="M749,701L901,776L882,654Z" fill="#707070" stroke="#707070" stroke-width="1.51"/><path d="M691,821L780,797L749,701Z" fill="#717171" stroke="#717171" stroke-width="1.51"/><path d="M691,821L749,701L649,696Z" fill="#787878" stroke="#787878" stroke-width="1.51"/><path d="M300,193L299,347L426,233Z" fill="#c9c9c9" stroke="#c9c9c9" stroke-width="1.51"/><path d="M1010,5L891,-2L886,111Z" fill="#adadad" stroke="#adadad" stroke-width="1.51"/><path d="M770,17L683,-110L640,-11Z" fill="#c5c5c5" stroke="#c5c5c5" stroke-width="1.51"/><path d="M413,555L428,690L557,591Z" fill="#989898" stroke="#989898" stroke-width="1.51"/><path d="M549,663L549,785L649,696Z" fill="#848484" stroke="#848484" stroke-width="1.51"/><path d="M333,464L330,548L420,474Z" fill="#acacac" stroke="#acacac" stroke-width="1.51"/><path d="M204,471L330,548L333,464Z" fill="#b0b0b0" stroke="#b0b0b0" stroke-width="1.51"/><path d="M640,-11L554,-8L538,105Z" fill="#cbcbcb" stroke="#cbcbcb" stroke-width="1.51"/><path d="M312,658L428,690L413,555Z" fill="#9a9a9a" stroke="#9a9a9a" stroke-width="1.51"/><path d="M1032,659L1112,560L989,560Z" fill="#6d6d6d" stroke="#6d6d6d" stroke-width="1.51"/><path d="M780,797L901,776L749,701Z" fill="#6d6d6d" stroke="#6d6d6d" stroke-width="1.51"/><path d="M457,773L549,785L549,663Z" fill="#868686" stroke="#868686" stroke-width="1.51"/><path d="M780,797L874,932L901,776Z" fill="#5f5f5f" stroke="#5f5f5f" stroke-width="1.51"/><path d="M549,785L691,821L649,696Z" fill="#7a7a7a" stroke="#7a7a7a" stroke-width="1.51"/><path d="M1004,123L1010,5L886,111Z" fill="#a7a7a7" stroke="#a7a7a7" stroke-width="1.51"/><path d="M1096,312L1130,206L1006,237Z" fill="#919191" stroke="#919191" stroke-width="1.51"/><path d="M1216,331L1130,206L1096,312Z" fill="#898989" stroke="#898989" stroke-width="1.51"/><path d="M1216,331L1096,312L1112,457Z" fill="#808080" stroke="#808080" stroke-width="1.51"/><path d="M434,76L300,193L426,233Z" fill="#cecece" stroke="#cecece" stroke-width="1.51"/><path d="M679,910L759,883L691,821Z" fill="#646464" stroke="#646464" stroke-width="1.51"/><path d="M428,690L457,773L549,663Z" fill="#8c8c8c" stroke="#8c8c8c" stroke-width="1.51"/><path d="M330,772L457,773L428,690Z" fill="#8c8c8c" stroke="#8c8c8c" stroke-width="1.51"/><path d="M1124,101L1010,5L1004,123Z" fill="#a1a1a1" stroke="#a1a1a1" stroke-width="1.51"/><path d="M330,548L312,658L413,555Z" fill="#a2a2a2" stroke="#a2a2a2" stroke-width="1.51"/><path d="M214,575L312,658L330,548Z" fill="#a5a5a5" stroke="#a5a5a5" stroke-width="1.51"/><path d="M299,347L204,471L333,464Z" fill="#b9b9b9" stroke="#b9b9b9" stroke-width="1.51"/><path d="M300,193L231,317L299,347Z" fill="#cacaca" stroke="#cacaca" stroke-width="1.51"/><path d="M794,-154L683,-110L770,17Z" fill="#c2c2c2" stroke="#c2c2c2" stroke-width="1.51"/><path d="M640,-11L527,-143L554,-8Z" fill="#d0d0d0" stroke="#d0d0d0" stroke-width="1.51"/><path d="M311,1L314,84L434,76Z" fill="#d9d9d9" stroke="#d9d9d9" stroke-width="1.51"/><path d="M867,-138L770,17L891,-2Z" fill="#b8b8b8" stroke="#b8b8b8" stroke-width="1.51"/><path d="M1130,206L1124,101L1004,123Z" fill="#999999" stroke="#999999" stroke-width="1.51"/><path d="M1236,463L1216,331L1112,457Z" fill="#767676" stroke="#767676" stroke-width="1.51"/><path d="M1130,206L1262,133L1124,101Z" fill="#929292" stroke="#929292" stroke-width="1.51"/><path d="M300,193L212,216L231,317Z" fill="#d0d0d0" stroke="#d0d0d0" stroke-width="1.51"/><path d="M434,76L314,84L300,193Z" fill="#d4d4d4" stroke="#d4d4d4" stroke-width="1.51"/><path d="M426,-32L434,76L554,-8Z" fill="#d5d5d5" stroke="#d5d5d5" stroke-width="1.51"/><path d="M691,821L759,883L780,797Z" fill="#666666" stroke="#666666" stroke-width="1.51"/><path d="M679,910L691,821L539,913Z" fill="#686868" stroke="#686868" stroke-width="1.51"/><path d="M1112,560L1236,463L1112,457Z" fill="#707070" stroke="#707070" stroke-width="1.51"/><path d="M1032,659L1125,695L1112,560Z" fill="#666666" stroke="#666666" stroke-width="1.51"/><path d="M901,776L1037,773L1032,659Z" fill="#626262" stroke="#626262" stroke-width="1.51"/><path d="M1023,902L1037,773L901,776Z" fill="#585858" stroke="#585858" stroke-width="1.51"/><path d="M448,-123L426,-32L554,-8Z" fill="#d9d9d9" stroke="#d9d9d9" stroke-width="1.51"/><path d="M1037,773L1125,695L1032,659Z" fill="#606060" stroke="#606060" stroke-width="1.51"/><path d="M231,317L204,471L299,347Z" fill="#c0c0c0" stroke="#c0c0c0" stroke-width="1.51"/><path d="M1242,574L1236,463L1112,560Z" fill="#696969" stroke="#696969" stroke-width="1.51"/><path d="M539,913L691,821L549,785Z" fill="#727272" stroke="#727272" stroke-width="1.51"/><path d="M231,317L109,336L204,471Z" fill="#c4c4c4" stroke="#c4c4c4" stroke-width="1.51"/><path d="M229,127L212,216L300,193Z" fill="#d5d5d5" stroke="#d5d5d5" stroke-width="1.51"/><path d="M204,471L214,575L330,548Z" fill="#aeaeae" stroke="#aeaeae" stroke-width="1.51"/><path d="M1036,-145L891,-2L1010,5Z" fill="#aeaeae" stroke="#aeaeae" stroke-width="1.51"/><path d="M1036,-145L867,-138L891,-2Z" fill="#b4b4b4" stroke="#b4b4b4" stroke-width="1.51"/><path d="M683,-110L527,-143L640,-11Z" fill="#cecece" stroke="#cecece" stroke-width="1.51"/><path d="M867,-138L794,-154L770,17Z" fill="#bebebe" stroke="#bebebe" stroke-width="1.51"/><path d="M312,658L330,772L428,690Z" fill="#949494" stroke="#949494" stroke-width="1.51"/><path d="M457,773L539,913L549,785Z" fill="#7a7a7a" stroke="#7a7a7a" stroke-width="1.51"/><path d="M216,667L330,772L312,658Z" fill="#999999" stroke="#999999" stroke-width="1.51"/><path d="M314,84L229,127L300,193Z" fill="#d7d7d7" stroke="#d7d7d7" stroke-width="1.51"/><path d="M311,1L229,127L314,84Z" fill="#dcdcdc" stroke="#dcdcdc" stroke-width="1.51"/><path d="M1124,101L1127,8L1010,5Z" fill="#a0a0a0" stroke="#a0a0a0" stroke-width="1.51"/><path d="M1262,133L1127,8L1124,101Z" fill="#979797" stroke="#979797" stroke-width="1.51"/><path d="M290,-140L311,1L426,-32Z" fill="#e1e1e1" stroke="#e1e1e1" stroke-width="1.51"/><path d="M426,-32L311,1L434,76Z" fill="#d9d9d9" stroke="#d9d9d9" stroke-width="1.51"/><path d="M1125,695L1242,574L1112,560Z" fill="#646464" stroke="#646464" stroke-width="1.51"/><path d="M794,-154L527,-143L683,-110Z" fill="#cccccc" stroke="#cccccc" stroke-width="1.51"/><path d="M430,924L539,913L457,773Z" fill="#767676" stroke="#767676" stroke-width="1.51"/><path d="M1125,695L1249,674L1242,574Z" fill="#5c5c5c" stroke="#5c5c5c" stroke-width="1.51"/><path d="M1037,773L1117,778L1125,695Z" fill="#5a5a5a" stroke="#5a5a5a" stroke-width="1.51"/><path d="M1023,902L1117,778L1037,773Z" fill="#535353" stroke="#535353" stroke-width="1.51"/><path d="M874,932L780,797L759,883Z" fill="#5d5d5d" stroke="#5d5d5d" stroke-width="1.51"/><path d="M1216,331L1254,203L1130,206Z" fill="#878787" stroke="#878787" stroke-width="1.51"/><path d="M1366,239L1254,203L1216,331Z" fill="#7d7d7d" stroke="#7d7d7d" stroke-width="1.51"/><path d="M1353,361L1216,331L1236,463Z" fill="#717171" stroke="#717171" stroke-width="1.51"/><path d="M871,1006L874,932L773,1024Z" fill="#4b4b4b" stroke="#4b4b4b" stroke-width="1.51"/><path d="M874,932L759,883L773,1024Z" fill="#525252" stroke="#525252" stroke-width="1.51"/><path d="M527,-143L448,-123L554,-8Z" fill="#d8d8d8" stroke="#d8d8d8" stroke-width="1.51"/><path d="M60,659L216,667L214,575Z" fill="#a7a7a7" stroke="#a7a7a7" stroke-width="1.51"/><path d="M214,575L216,667L312,658Z" fill="#a2a2a2" stroke="#a2a2a2" stroke-width="1.51"/><path d="M1339,112L1262,133L1254,203Z" fill="#858585" stroke="#858585" stroke-width="1.51"/><path d="M1254,203L1262,133L1130,206Z" fill="#8b8b8b" stroke="#8b8b8b" stroke-width="1.51"/><path d="M874,932L1023,902L901,776Z" fill="#545454" stroke="#545454" stroke-width="1.51"/><path d="M1216,795L1249,674L1125,695Z" fill="#555555" stroke="#555555" stroke-width="1.51"/><path d="M1352,459L1353,361L1236,463Z" fill="#676767" stroke="#676767" stroke-width="1.51"/><path d="M1216,795L1125,695L1117,778Z" fill="#555555" stroke="#555555" stroke-width="1.51"/><path d="M212,216L109,336L231,317Z" fill="#cecece" stroke="#cecece" stroke-width="1.51"/><path d="M204,471L66,575L214,575Z" fill="#b1b1b1" stroke="#b1b1b1" stroke-width="1.51"/><path d="M66,205L109,336L212,216Z" fill="#d5d5d5" stroke="#d5d5d5" stroke-width="1.51"/><path d="M773,1024L759,883L679,910Z" fill="#575757" stroke="#575757" stroke-width="1.51"/><path d="M330,772L430,924L457,773Z" fill="#818181" stroke="#818181" stroke-width="1.51"/><path d="M296,892L430,924L330,772Z" fill="#7e7e7e" stroke="#7e7e7e" stroke-width="1.51"/><path d="M867,-138L1036,-145L794,-154Z" fill="#b9b9b9" stroke="#b9b9b9" stroke-width="1.51"/><path d="M1103,-100L1036,-145L1010,5Z" fill="#aaaaaa" stroke="#aaaaaa" stroke-width="1.51"/><path d="M1103,-100L1010,5L1127,8Z" fill="#a5a5a5" stroke="#a5a5a5" stroke-width="1.51"/><path d="M1229,-128L1103,-100L1127,8Z" fill="#a2a2a2" stroke="#a2a2a2" stroke-width="1.51"/><path d="M1352,459L1236,463L1242,574Z" fill="#646464" stroke="#646464" stroke-width="1.51"/><path d="M1331,593L1352,459L1242,574Z" fill="#5b5b5b" stroke="#5b5b5b" stroke-width="1.51"/><path d="M773,1024L679,910L666,1033Z" fill="#545454" stroke="#545454" stroke-width="1.51"/><path d="M874,932L1022,1031L1023,902Z" fill="#454545" stroke="#454545" stroke-width="1.51"/><path d="M666,1033L679,910L539,913Z" fill="#5e5e5e" stroke="#5e5e5e" stroke-width="1.51"/><path d="M1249,674L1331,593L1242,574Z" fill="#585858" stroke="#585858" stroke-width="1.51"/><path d="M1125,916L1216,795L1117,778Z" fill="#4a4a4a" stroke="#4a4a4a" stroke-width="1.51"/><path d="M1125,916L1117,778L1023,902Z" fill="#494949" stroke="#494949" stroke-width="1.51"/><path d="M1340,657L1331,593L1249,674Z" fill="#525252" stroke="#525252" stroke-width="1.51"/><path d="M109,336L72,468L204,471Z" fill="#c0c0c0" stroke="#c0c0c0" stroke-width="1.51"/><path d="M534,1052L666,1033L539,913Z" fill="#5d5d5d" stroke="#5d5d5d" stroke-width="1.51"/><path d="M229,127L66,205L212,216Z" fill="#d9d9d9" stroke="#d9d9d9" stroke-width="1.51"/><path d="M109,336L-24,454L72,468Z" fill="#c5c5c5" stroke="#c5c5c5" stroke-width="1.51"/><path d="M311,1L202,-33L229,127Z" fill="#e1e1e1" stroke="#e1e1e1" stroke-width="1.51"/><path d="M290,-140L202,-33L311,1Z" fill="#e5e5e5" stroke="#e5e5e5" stroke-width="1.51"/><path d="M202,811L296,892L330,772Z" fill="#888888" stroke="#888888" stroke-width="1.51"/><path d="M427,1032L534,1052L539,913Z" fill="#636363" stroke="#636363" stroke-width="1.51"/><path d="M202,811L330,772L216,667Z" fill="#959595" stroke="#959595" stroke-width="1.51"/><path d="M1353,361L1366,239L1216,331Z" fill="#757575" stroke="#757575" stroke-width="1.51"/><path d="M1262,133L1263,-36L1127,8Z" fill="#959595" stroke="#959595" stroke-width="1.51"/><path d="M1445,238L1366,239L1353,361Z" fill="#6f6f6f" stroke="#6f6f6f" stroke-width="1.51"/><path d="M110,803L202,811L216,667Z" fill="#979797" stroke="#979797" stroke-width="1.51"/><path d="M1098,1024L1125,916L1023,902Z" fill="#3f3f3f" stroke="#3f3f3f" stroke-width="1.51"/><path d="M794,-154L290,-140L527,-143Z" fill="#d7d7d7" stroke="#d7d7d7" stroke-width="1.51"/><path d="M527,-143L290,-140L448,-123Z" fill="#dfdfdf" stroke="#dfdfdf" stroke-width="1.51"/><path d="M448,-123L290,-140L426,-32Z" fill="#e0e0e0" stroke="#e0e0e0" stroke-width="1.51"/><path d="M59,106L66,205L229,127Z" fill="#dfdfdf" stroke="#dfdfdf" stroke-width="1.51"/><path d="M1366,239L1339,112L1254,203Z" fill="#7f7f7f" stroke="#7f7f7f" stroke-width="1.51"/><path d="M72,468L66,575L204,471Z" fill="#b7b7b7" stroke="#b7b7b7" stroke-width="1.51"/><path d="M-22,538L66,575L72,468Z" fill="#b9b9b9" stroke="#b9b9b9" stroke-width="1.51"/><path d="M1456,654L1340,657L1462,776Z" fill="#414141" stroke="#414141" stroke-width="1.51"/><path d="M1374,825L1340,657L1249,674Z" fill="#494949" stroke="#494949" stroke-width="1.51"/><path d="M1467,543L1439,430L1352,459Z" fill="#575757" stroke="#575757" stroke-width="1.51"/><path d="M1352,459L1439,430L1353,361Z" fill="#616161" stroke="#616161" stroke-width="1.51"/><path d="M1339,112L1263,-36L1262,133Z" fill="#8a8a8a" stroke="#8a8a8a" stroke-width="1.51"/><path d="M1103,-100L1229,-128L1036,-145Z" fill="#a6a6a6" stroke="#a6a6a6" stroke-width="1.51"/><path d="M427,1032L539,913L430,924Z" fill="#6a6a6a" stroke="#6a6a6a" stroke-width="1.51"/><path d="M666,1033L1022,1031L773,1024Z" fill="#484848" stroke="#484848" stroke-width="1.51"/><path d="M314,1015L430,924L296,892Z" fill="#717171" stroke="#717171" stroke-width="1.51"/><path d="M314,1015L427,1032L430,924Z" fill="#6a6a6a" stroke="#6a6a6a" stroke-width="1.51"/><path d="M-43,665L60,659L66,575Z" fill="#adadad" stroke="#adadad" stroke-width="1.51"/><path d="M66,575L60,659L214,575Z" fill="#acacac" stroke="#acacac" stroke-width="1.51"/><path d="M202,-33L59,106L229,127Z" fill="#e3e3e3" stroke="#e3e3e3" stroke-width="1.51"/><path d="M-56,357L-24,454L109,336Z" fill="#cbcbcb" stroke="#cbcbcb" stroke-width="1.51"/><path d="M61,-26L59,106L202,-33Z" fill="#e9e9e9" stroke="#e9e9e9" stroke-width="1.51"/><path d="M871,1006L1022,1031L874,932Z" fill="#454545" stroke="#454545" stroke-width="1.51"/><path d="M773,1024L1022,1031L871,1006Z" fill="#444444" stroke="#444444" stroke-width="1.51"/><path d="M534,1052L1022,1031L666,1033Z" fill="#4d4d4d" stroke="#4d4d4d" stroke-width="1.51"/><path d="M1340,-105L1229,-128L1263,-36Z" fill="#959595" stroke="#959595" stroke-width="1.51"/><path d="M1263,-36L1229,-128L1127,8Z" fill="#9c9c9c" stroke="#9c9c9c" stroke-width="1.51"/><path d="M1467,543L1352,459L1331,593Z" fill="#555555" stroke="#555555" stroke-width="1.51"/><path d="M1366,239L1445,238L1339,112Z" fill="#777777" stroke="#777777" stroke-width="1.51"/><path d="M290,-140L179,-116L202,-33Z" fill="#eaeaea" stroke="#eaeaea" stroke-width="1.51"/><path d="M60,659L110,803L216,667Z" fill="#9f9f9f" stroke="#9f9f9f" stroke-width="1.51"/><path d="M202,811L214,926L296,892Z" fill="#818181" stroke="#818181" stroke-width="1.51"/><path d="M1487,318L1445,238L1353,361Z" fill="#696969" stroke="#696969" stroke-width="1.51"/><path d="M1339,112L1373,4L1263,-36Z" fill="#898989" stroke="#898989" stroke-width="1.51"/><path d="M110,803L214,926L202,811Z" fill="#898989" stroke="#898989" stroke-width="1.51"/><path d="M-38,231L109,336L66,205Z" fill="#d8d8d8" stroke="#d8d8d8" stroke-width="1.51"/><path d="M60,659L-1,781L110,803Z" fill="#9e9e9e" stroke="#9e9e9e" stroke-width="1.51"/><path d="M1022,1031L1098,1024L1023,902Z" fill="#3e3e3e" stroke="#3e3e3e" stroke-width="1.51"/><path d="M1125,916L1228,928L1216,795Z" fill="#404040" stroke="#404040" stroke-width="1.51"/><path d="M1456,654L1467,543L1331,593Z" fill="#4b4b4b" stroke="#4b4b4b" stroke-width="1.51"/><path d="M1098,1024L1228,928L1125,916Z" fill="#393939" stroke="#393939" stroke-width="1.51"/><path d="M214,926L314,1015L296,892Z" fill="#757575" stroke="#757575" stroke-width="1.51"/><path d="M427,1032L94,1022L534,1052Z" fill="#676767" stroke="#676767" stroke-width="1.51"/><path d="M1470,92L1373,4L1339,112Z" fill="#7f7f7f" stroke="#7f7f7f" stroke-width="1.51"/><path d="M-24,454L-22,538L72,468Z" fill="#bebebe" stroke="#bebebe" stroke-width="1.51"/><path d="M1439,430L1487,318L1353,361Z" fill="#626262" stroke="#626262" stroke-width="1.51"/><path d="M1456,654L1331,593L1340,657Z" fill="#4b4b4b" stroke="#4b4b4b" stroke-width="1.51"/><path d="M-47,113L-38,231L66,205Z" fill="#e1e1e1" stroke="#e1e1e1" stroke-width="1.51"/><path d="M-24,454L-144,562L-22,538Z" fill="#bdbdbd" stroke="#bdbdbd" stroke-width="1.51"/><path d="M-47,113L66,205L59,106Z" fill="#e4e4e4" stroke="#e4e4e4" stroke-width="1.51"/><path d="M1445,238L1470,92L1339,112Z" fill="#777777" stroke="#777777" stroke-width="1.51"/><path d="M1565,430L1487,318L1439,430Z" fill="#5a5a5a" stroke="#5a5a5a" stroke-width="1.51"/><path d="M79,-107L61,-26L202,-33Z" fill="#ededed" stroke="#ededed" stroke-width="1.51"/><path d="M-38,231L-56,357L109,336Z" fill="#d5d5d5" stroke="#d5d5d5" stroke-width="1.51"/><path d="M1374,825L1249,674L1216,795Z" fill="#484848" stroke="#484848" stroke-width="1.51"/><path d="M1373,4L1340,-105L1263,-36Z" fill="#8d8d8d" stroke="#8d8d8d" stroke-width="1.51"/><path d="M1453,-128L1340,-105L1373,4Z" fill="#888888" stroke="#888888" stroke-width="1.51"/><path d="M1344,926L1374,825L1216,795Z" fill="#393939" stroke="#393939" stroke-width="1.51"/><path d="M1344,926L1216,795L1228,928Z" fill="#383838" stroke="#383838" stroke-width="1.51"/><path d="M179,-116L79,-107L202,-33Z" fill="#ededed" stroke="#ededed" stroke-width="1.51"/><path d="M-41,-28L-47,113L59,106Z" fill="#eaeaea" stroke="#eaeaea" stroke-width="1.51"/><path d="M-55,-136L79,-107L179,-116Z" fill="#f2f2f2" stroke="#f2f2f2" stroke-width="1.51"/><path d="M1580,201L1470,92L1445,238Z" fill="#6e6e6e" stroke="#6e6e6e" stroke-width="1.51"/><path d="M-38,231L-153,324L-56,357Z" fill="#d8d8d8" stroke="#d8d8d8" stroke-width="1.51"/><path d="M-41,-28L59,106L61,-26Z" fill="#ededed" stroke="#ededed" stroke-width="1.51"/><path d="M214,926L196,1003L314,1015Z" fill="#737373" stroke="#737373" stroke-width="1.51"/><path d="M314,1015L94,1022L427,1032Z" fill="#6c6c6c" stroke="#6c6c6c" stroke-width="1.51"/><path d="M82,931L196,1003L214,926Z" fill="#7a7a7a" stroke="#7a7a7a" stroke-width="1.51"/><path d="M82,931L214,926L110,803Z" fill="#848484" stroke="#848484" stroke-width="1.51"/><path d="M-22,538L-43,665L66,575Z" fill="#b2b2b2" stroke="#b2b2b2" stroke-width="1.51"/><path d="M-144,562L-43,665L-22,538Z" fill="#b4b4b4" stroke="#b4b4b4" stroke-width="1.51"/><path d="M-43,665L-1,781L60,659Z" fill="#a5a5a5" stroke="#a5a5a5" stroke-width="1.51"/><path d="M1374,825L1462,776L1340,657Z" fill="#3e3e3e" stroke="#3e3e3e" stroke-width="1.51"/><path d="M1338,1037L1344,926L1228,928Z" fill="#2b2b2b" stroke="#2b2b2b" stroke-width="1.51"/><path d="M1470,92L1458,-3L1373,4Z" fill="#7e7e7e" stroke="#7e7e7e" stroke-width="1.51"/><path d="M1098,1024L1219,1051L1228,928Z" fill="#333333" stroke="#333333" stroke-width="1.51"/><path d="M1022,1031L1219,1051L1098,1024Z" fill="#343434" stroke="#343434" stroke-width="1.51"/><path d="M534,1052L1219,1051L1022,1031Z" fill="#3f3f3f" stroke="#3f3f3f" stroke-width="1.51"/><path d="M-1,781L82,931L110,803Z" fill="#8f8f8f" stroke="#8f8f8f" stroke-width="1.51"/><path d="M1493,925L1462,776L1374,825Z" fill="#2e2e2e" stroke="#2e2e2e" stroke-width="1.51"/><path d="M1600,564L1565,430L1467,543Z" fill="#4a4a4a" stroke="#4a4a4a" stroke-width="1.51"/><path d="M1467,543L1565,430L1439,430Z" fill="#535353" stroke="#535353" stroke-width="1.51"/><path d="M1600,564L1467,543L1456,654Z" fill="#464646" stroke="#464646" stroke-width="1.51"/><path d="M1487,318L1580,201L1445,238Z" fill="#686868" stroke="#686868" stroke-width="1.51"/><path d="M1470,92L1611,12L1458,-3Z" fill="#777777" stroke="#777777" stroke-width="1.51"/><path d="M79,-107L-41,-28L61,-26Z" fill="#f1f1f1" stroke="#f1f1f1" stroke-width="1.51"/><path d="M1565,430L1584,363L1487,318Z" fill="#595959" stroke="#595959" stroke-width="1.51"/><path d="M-56,357L-172,444L-24,454Z" fill="#cacaca" stroke="#cacaca" stroke-width="1.51"/><path d="M-153,247L-153,324L-38,231Z" fill="#dddddd" stroke="#dddddd" stroke-width="1.51"/><path d="M-153,247L-38,231L-133,124Z" fill="#e3e3e3" stroke="#e3e3e3" stroke-width="1.51"/><path d="M-43,665L-142,794L-1,781Z" fill="#a2a2a2" stroke="#a2a2a2" stroke-width="1.51"/><path d="M-33,1001L94,1022L82,931Z" fill="#7b7b7b" stroke="#7b7b7b" stroke-width="1.51"/><path d="M-172,444L-144,562L-24,454Z" fill="#c2c2c2" stroke="#c2c2c2" stroke-width="1.51"/><path d="M1584,363L1580,201L1487,318Z" fill="#616161" stroke="#616161" stroke-width="1.51"/><path d="M-133,124L-38,231L-47,113Z" fill="#e6e6e6" stroke="#e6e6e6" stroke-width="1.51"/><path d="M-152,-33L-133,124L-47,113Z" fill="#ededed" stroke="#ededed" stroke-width="1.51"/><path d="M-153,247L-172,444L-153,324Z" fill="#d6d6d6" stroke="#d6d6d6" stroke-width="1.51"/><path d="M-153,324L-172,444L-56,357Z" fill="#d0d0d0" stroke="#d0d0d0" stroke-width="1.51"/><path d="M-40,931L82,931L-1,781Z" fill="#8b8b8b" stroke="#8b8b8b" stroke-width="1.51"/><path d="M82,931L94,1022L196,1003Z" fill="#787878" stroke="#787878" stroke-width="1.51"/><path d="M196,1003L94,1022L314,1015Z" fill="#717171" stroke="#717171" stroke-width="1.51"/><path d="M1458,-3L1453,-128L1373,4Z" fill="#838383" stroke="#838383" stroke-width="1.51"/><path d="M1340,-105L1453,-128L1229,-128Z" fill="#8f8f8f" stroke="#8f8f8f" stroke-width="1.51"/><path d="M1229,-128L1453,-128L1036,-145Z" fill="#9b9b9b" stroke="#9b9b9b" stroke-width="1.51"/><path d="M1583,-99L1453,-128L1458,-3Z" fill="#7e7e7e" stroke="#7e7e7e" stroke-width="1.51"/><path d="M1565,430L1600,564L1584,363Z" fill="#4d4d4d" stroke="#4d4d4d" stroke-width="1.51"/><path d="M1584,363L1601,112L1580,201Z" fill="#636363" stroke="#636363" stroke-width="1.51"/><path d="M1598,682L1600,564L1456,654Z" fill="#3e3e3e" stroke="#3e3e3e" stroke-width="1.51"/><path d="M1462,776L1598,682L1456,654Z" fill="#3a3a3a" stroke="#3a3a3a" stroke-width="1.51"/><path d="M1344,926L1493,925L1374,825Z" fill="#2a2a2a" stroke="#2a2a2a" stroke-width="1.51"/><path d="M1219,1051L1338,1037L1228,928Z" fill="#2b2b2b" stroke="#2b2b2b" stroke-width="1.51"/><path d="M-144,562L-150,676L-43,665Z" fill="#b0b0b0" stroke="#b0b0b0" stroke-width="1.51"/><path d="M-172,444L-150,676L-144,562Z" fill="#bababa" stroke="#bababa" stroke-width="1.51"/><path d="M1580,201L1601,112L1470,92Z" fill="#6e6e6e" stroke="#6e6e6e" stroke-width="1.51"/><path d="M1600,564L1601,112L1584,363Z" fill="#585858" stroke="#585858" stroke-width="1.51"/><path d="M1571,813L1598,682L1462,776Z" fill="#333333" stroke="#333333" stroke-width="1.51"/><path d="M-41,-28L-152,-33L-47,113Z" fill="#f0f0f0" stroke="#f0f0f0" stroke-width="1.51"/><path d="M79,-107L-55,-136L-41,-28Z" fill="#f4f4f4" stroke="#f4f4f4" stroke-width="1.51"/><path d="M290,-140L-55,-136L179,-116Z" fill="#efefef" stroke="#efefef" stroke-width="1.51"/><path d="M-128,-145L-55,-136L290,-140Z" fill="#f5f5f5" stroke="#f5f5f5" stroke-width="1.51"/><path d="M-142,794L-40,931L-1,781Z" fill="#959595" stroke="#959595" stroke-width="1.51"/><path d="M1462,1007L1493,925L1344,926Z" fill="#212121" stroke="#212121" stroke-width="1.51"/><path d="M-158,897L-142,794L-150,676Z" fill="#9f9f9f" stroke="#9f9f9f" stroke-width="1.51"/><path d="M-150,676L-142,794L-43,665Z" fill="#a8a8a8" stroke="#a8a8a8" stroke-width="1.51"/><path d="M1493,925L1571,813L1462,776Z" fill="#2a2a2a" stroke="#2a2a2a" stroke-width="1.51"/><path d="M-55,-136L-152,-33L-41,-28Z" fill="#f5f5f5" stroke="#f5f5f5" stroke-width="1.51"/><path d="M-133,124L-152,-33L-153,247Z" fill="#ebebeb" stroke="#ebebeb" stroke-width="1.51"/><path d="M-153,247L-152,-33L-172,444Z" fill="#e3e3e3" stroke="#e3e3e3" stroke-width="1.51"/><path d="M1612,890L1611,12L1600,564Z" fill="#484848" stroke="#484848" stroke-width="1.51"/><path d="M1600,564L1611,12L1601,112Z" fill="#626262" stroke="#626262" stroke-width="1.51"/><path d="M1601,112L1611,12L1470,92Z" fill="#717171" stroke="#717171" stroke-width="1.51"/><path d="M1493,925L1612,890L1571,813Z" fill="#222222" stroke="#222222" stroke-width="1.51"/><path d="M1338,1037L1462,1007L1344,926Z" fill="#222222" stroke="#222222" stroke-width="1.51"/><path d="M-141,1055L-33,1001L-40,931Z" fill="#7d7d7d" stroke="#7d7d7d" stroke-width="1.51"/><path d="M-40,931L-33,1001L82,931Z" fill="#808080" stroke="#808080" stroke-width="1.51"/><path d="M1611,12L1583,-99L1458,-3Z" fill="#787878" stroke="#787878" stroke-width="1.51"/><path d="M-55,-136L-128,-145L-152,-33Z" fill="#f8f8f8" stroke="#f8f8f8" stroke-width="1.51"/><path d="M794,-154L-128,-145L290,-140Z" fill="#e6e6e6" stroke="#e6e6e6" stroke-width="1.51"/><path d="M-142,794L-158,897L-40,931Z" fill="#8f8f8f" stroke="#8f8f8f" stroke-width="1.51"/><path d="M-172,444L-158,897L-150,676Z" fill="#adadad" stroke="#adadad" stroke-width="1.51"/><path d="M1568,1031L1612,890L1493,925Z" fill="#1a1a1a" stroke="#1a1a1a" stroke-width="1.51"/><path d="M1571,813L1612,890L1598,682Z" fill="#2a2a2a" stroke="#2a2a2a" stroke-width="1.51"/><path d="M1598,682L1612,890L1600,564Z" fill="#323232" stroke="#323232" stroke-width="1.51"/><path d="M1462,1007L1568,1031L1493,925Z" fill="#191919" stroke="#191919" stroke-width="1.51"/><path d="M1338,1037L1568,1031L1462,1007Z" fill="#191919" stroke="#191919" stroke-width="1.51"/><path d="M1219,1051L1568,1031L1338,1037Z" fill="#1d1d1d" stroke="#1d1d1d" stroke-width="1.51"/><path d="M-158,897L-141,1055L-40,931Z" fill="#838383" stroke="#838383" stroke-width="1.51"/><path d="M-33,1001L-141,1055L94,1022Z" fill="#797979" stroke="#797979" stroke-width="1.51"/><path d="M94,1022L-141,1055L534,1052Z" fill="#6f6f6f" stroke="#6f6f6f" stroke-width="1.51"/><path d="M534,1052L-141,1055L1219,1051Z" fill="#5a5a5a" stroke="#5a5a5a" stroke-width="1.51"/></svg>